<svg width="200" height="40" viewBox="0 0 200 40" fill="none" xmlns="http://www.w3.org/2000/svg">
<mask id="mask0_1216_1841" style="mask-type:luminance" maskUnits="userSpaceOnUse" x="0" y="0" width="200" height="40">
<path d="M200 0.182617H0V39.9315H200V0.182617Z" fill="white"/>
</mask>
<g mask="url(#mask0_1216_1841)">
<path d="M19.7341 28.9959L14.9691 13.3314H14.8466C15.0168 16.5207 15.1052 18.6446 15.1052 19.7099V28.9959H11.3613V9.02179H17.0725L21.7558 24.2945H21.8375L26.7999 9.02179H32.511V28.9959H28.6038V19.5381C28.6038 19.0913 28.6106 18.5758 28.6242 17.9916C28.6378 17.4073 28.6991 15.8608 28.808 13.3452H28.6854L23.5869 28.9821H19.7341V28.9959Z" fill="#13254A"/>
</g>
<mask id="mask1_1216_1841" style="mask-type:luminance" maskUnits="userSpaceOnUse" x="0" y="0" width="200" height="40">
<path d="M200 0.182617H0V39.9315H200V0.182617Z" fill="white"/>
</mask>
<g mask="url(#mask1_1216_1841)">
<path d="M67.1656 28.9959H62.9724V12.5478H57.6016V9.02179H72.5364V12.5478H67.1656V28.9959Z" fill="#13254A"/>
</g>
<mask id="mask2_1216_1841" style="mask-type:luminance" maskUnits="userSpaceOnUse" x="0" y="0" width="200" height="40">
<path d="M200 0.182617H0V39.9315H200V0.182617Z" fill="white"/>
</mask>
<g mask="url(#mask2_1216_1841)">
<path d="M91.7869 28.9959H87.6073V20.3766H79.7723V28.9959H75.5791V9.02179H79.7723V16.8506H87.6073V9.02179H91.7869V28.9959Z" fill="#13254A"/>
</g>
<mask id="mask3_1216_1841" style="mask-type:luminance" maskUnits="userSpaceOnUse" x="0" y="0" width="200" height="40">
<path d="M200 0.182617H0V39.9315H200V0.182617Z" fill="white"/>
</mask>
<g mask="url(#mask3_1216_1841)">
<path d="M108.172 28.9959H96.7832V9.02179H108.172V12.4929H100.976V16.8781H107.668V20.3492H100.976V25.4973H108.172V28.9959Z" fill="#13254A"/>
</g>
<mask id="mask4_1216_1841" style="mask-type:luminance" maskUnits="userSpaceOnUse" x="0" y="0" width="200" height="40">
<path d="M200 0.182617H0V39.9315H200V0.182617Z" fill="white"/>
</mask>
<g mask="url(#mask4_1216_1841)">
<path d="M116.49 21.3321V28.9959H112.297V9.02179H118.063C120.751 9.02179 122.739 9.51667 124.026 10.5064C125.319 11.4962 125.959 12.9946 125.959 15.0085C125.959 16.1839 125.639 17.2286 124.999 18.1428C124.359 19.057 123.454 19.7787 122.283 20.2942C125.258 24.7825 127.198 27.6831 128.103 28.9959H123.447L118.723 21.3321H116.49ZM116.49 17.8885H117.845C119.172 17.8885 120.152 17.6685 120.779 17.2218C121.412 16.775 121.725 16.0739 121.725 15.1185C121.725 14.17 121.405 13.4964 120.758 13.0977C120.111 12.6991 119.111 12.4997 117.763 12.4997H116.49V17.8885Z" fill="#13254A"/>
</g>
<mask id="mask5_1216_1841" style="mask-type:luminance" maskUnits="userSpaceOnUse" x="0" y="0" width="200" height="40">
<path d="M200 0.182617H0V39.9315H200V0.182617Z" fill="white"/>
</mask>
<g mask="url(#mask5_1216_1841)">
<path d="M142.262 23.4491C142.262 25.2499 141.622 26.6727 140.335 27.7106C139.049 28.7485 137.265 29.264 134.971 29.264C132.861 29.264 130.996 28.8653 129.369 28.0611V24.1295C130.703 24.7275 131.833 25.1537 132.759 25.4011C133.685 25.6486 134.529 25.7723 135.298 25.7723C136.217 25.7723 136.925 25.5936 137.415 25.243C137.905 24.8856 138.15 24.3632 138.15 23.6553C138.15 23.2635 138.041 22.9129 137.824 22.6105C137.606 22.3081 137.293 22.0125 136.871 21.7307C136.455 21.4489 135.598 20.9953 134.304 20.3767C133.093 19.8062 132.187 19.2563 131.588 18.727C130.982 18.1978 130.499 17.5861 130.138 16.885C129.778 16.1839 129.601 15.3659 129.601 14.4243C129.601 12.6578 130.193 11.2694 131.377 10.259C132.562 9.24862 134.202 8.73999 136.292 8.73999C137.32 8.73999 138.3 8.86371 139.233 9.11115C140.165 9.3586 141.139 9.70227 142.16 10.149L140.805 13.4414C139.75 13.0015 138.879 12.6991 138.184 12.5272C137.497 12.3554 136.816 12.266 136.149 12.266C135.353 12.266 134.747 12.4516 134.325 12.8228C133.903 13.194 133.692 13.682 133.692 14.2868C133.692 14.658 133.78 14.9879 133.95 15.2628C134.121 15.5378 134.393 15.8058 134.767 16.067C135.142 16.3282 136.027 16.7956 137.422 17.4692C139.274 18.3628 140.54 19.2563 141.22 20.1567C141.921 21.0434 142.262 22.1431 142.262 23.4491Z" fill="#13254A"/>
</g>
<mask id="mask6_1216_1841" style="mask-type:luminance" maskUnits="userSpaceOnUse" x="0" y="0" width="200" height="40">
<path d="M200 0.182617H0V39.9315H200V0.182617Z" fill="white"/>
</mask>
<g mask="url(#mask6_1216_1841)">
<path d="M162.057 28.9959H157.871V20.3766H150.043V28.9959H145.85V9.02179H150.043V16.8506H157.871V9.02179H162.057V28.9959Z" fill="#13254A"/>
</g>
<mask id="mask7_1216_1841" style="mask-type:luminance" maskUnits="userSpaceOnUse" x="0" y="0" width="200" height="40">
<path d="M200 0.182617H0V39.9315H200V0.182617Z" fill="white"/>
</mask>
<g mask="url(#mask7_1216_1841)">
<path d="M171.24 9.02179H167.047V28.9959H171.24V9.02179Z" fill="#13254A"/>
</g>
<mask id="mask8_1216_1841" style="mask-type:luminance" maskUnits="userSpaceOnUse" x="0" y="0" width="200" height="40">
<path d="M200 0.182617H0V39.9315H200V0.182617Z" fill="white"/>
</mask>
<g mask="url(#mask8_1216_1841)">
<path d="M189.885 15.2491C189.885 17.4005 189.217 19.0432 187.89 20.1842C186.563 21.3252 184.67 21.8888 182.213 21.8888H180.416V28.989H176.223V9.02179H182.54C184.936 9.02179 186.76 9.54417 188.013 10.5889C189.258 11.6268 189.885 13.1871 189.885 15.2491ZM180.409 18.4177H181.791C183.084 18.4177 184.044 18.1634 184.684 17.6479C185.324 17.1324 185.644 16.3832 185.644 15.4003C185.644 14.4105 185.378 13.6751 184.84 13.2008C184.303 12.7266 183.465 12.4929 182.315 12.4929H180.409V18.4177Z" fill="#13254A"/>
</g>
</svg>
